<?xml version="1.0" standalone="no"?>
<!DOCTYPE svg PUBLIC "-//W3C//DTD SVG 20010904//EN"
 "http://www.w3.org/TR/2001/REC-SVG-20010904/DTD/svg10.dtd">
<svg version="1.0" xmlns="http://www.w3.org/2000/svg"
 width="2000.000000pt" height="2000.000000pt" viewBox="0 0 2000.000000 2000.000000"
 preserveAspectRatio="xMidYMid meet">
<metadata>
Created by potrace 1.14, written by Peter Selinger 2001-2017
</metadata>
<g transform="translate(0.000000,2000.000000) scale(0.100000,-0.100000)"
fill="#000000" stroke="none">
<path d="M16410 17546 c-3 -2 -50 -7 -105 -11 -55 -3 -113 -8 -130 -10 -16 -1
-61 -6 -100 -10 -38 -3 -77 -8 -85 -10 -8 -3 -40 -7 -70 -10 -30 -3 -62 -8
-70 -10 -8 -2 -35 -7 -60 -10 -42 -5 -55 -8 -120 -20 -14 -3 -38 -8 -55 -11
-77 -13 -268 -59 -383 -90 -70 -20 -131 -37 -137 -38 -73 -17 -396 -136 -540
-199 -100 -43 -319 -153 -405 -202 -36 -21 -79 -46 -97 -56 -17 -10 -49 -29
-70 -42 -75 -46 -69 -53 -48 53 3 13 7 41 10 62 33 242 53 558 36 558 -6 0
-43 -13 -83 -29 -200 -78 -555 -183 -731 -215 -12 -2 -67 -13 -122 -24 -55
-12 -116 -23 -135 -26 -19 -3 -48 -8 -65 -11 -65 -12 -142 -24 -185 -30 -25
-3 -56 -8 -70 -10 -14 -2 -52 -7 -85 -11 -33 -3 -68 -8 -78 -10 -9 -1 -54 -6
-100 -9 -45 -3 -102 -8 -127 -10 -116 -12 -257 -17 -520 -17 -300 0 -583 10
-780 27 -30 3 -89 7 -130 10 -41 3 -91 7 -110 10 -19 2 -82 9 -140 15 -58 6
-150 17 -205 25 -55 8 -120 16 -145 19 -25 4 -56 8 -69 11 -14 2 -61 9 -105
15 -81 11 -104 15 -161 24 -16 3 -75 12 -130 21 -55 9 -112 18 -127 20 -16 3
-43 7 -60 10 -18 3 -44 7 -58 10 -14 2 -47 7 -75 10 -27 3 -61 7 -75 10 -33 6
-91 14 -143 20 -23 3 -53 7 -67 10 -14 3 -52 7 -85 11 -33 3 -66 7 -73 10 -8
2 -53 9 -100 14 -48 6 -103 12 -122 15 -67 9 -152 19 -240 29 -19 3 -62 7 -95
11 -33 3 -73 8 -90 10 -16 2 -57 6 -90 10 -33 3 -78 8 -100 10 -22 3 -71 7
-110 10 -38 3 -92 8 -120 10 -27 2 -99 7 -160 10 -60 4 -137 8 -170 10 -397
25 -1218 25 -1615 0 -198 -12 -268 -17 -290 -20 -14 -2 -63 -7 -110 -11 -111
-9 -188 -17 -290 -29 -19 -3 -55 -7 -80 -10 -71 -8 -195 -25 -216 -29 -10 -2
-40 -7 -65 -10 -39 -5 -121 -20 -374 -66 -27 -5 -59 -11 -70 -14 -11 -2 -56
-12 -100 -21 -246 -51 -690 -176 -905 -255 -47 -18 -89 -33 -95 -34 -5 -2 -19
-6 -30 -11 -124 -47 -169 -66 -290 -117 -436 -186 -847 -425 -1202 -699 -60
-46 -113 -88 -120 -94 -6 -5 -30 -26 -54 -45 -24 -19 -50 -42 -59 -50 -9 -8
-38 -35 -66 -59 -560 -500 -971 -1102 -1219 -1786 -44 -122 -114 -350 -130
-425 -2 -8 -10 -44 -19 -80 -8 -36 -17 -76 -20 -90 -3 -14 -10 -50 -15 -80 -6
-30 -13 -66 -16 -80 -3 -14 -7 -41 -10 -60 -3 -19 -7 -44 -9 -55 -2 -11 -7
-45 -11 -75 -4 -30 -9 -62 -10 -71 -2 -8 -6 -55 -10 -105 -4 -49 -9 -91 -11
-95 -7 -12 -18 -308 -18 -489 0 -169 8 -335 19 -389 2 -9 6 -44 10 -76 4 -33
14 -89 22 -125 8 -36 16 -78 19 -95 14 -71 79 -250 133 -360 170 -348 457
-587 868 -725 112 -37 296 -82 393 -95 25 -3 56 -8 70 -10 74 -14 201 -23 398
-31 189 -7 181 -14 126 104 -114 244 -180 474 -209 727 -3 28 -8 64 -10 80
-22 163 -22 710 0 975 1 19 6 76 9 125 4 50 9 101 11 115 2 14 6 52 10 85 3
33 8 71 10 85 2 14 6 43 9 65 8 49 45 277 51 302 41 195 68 302 121 473 19 63
42 129 50 147 8 17 14 34 14 37 0 15 82 210 130 309 326 681 845 1145 1570
1404 134 47 354 110 488 138 12 3 32 7 45 10 123 28 411 69 557 80 47 4 101 9
120 11 19 3 187 7 372 11 l337 6 -9 -34 c-5 -19 -12 -50 -15 -69 -3 -19 -8
-43 -11 -52 -3 -9 -6 -25 -8 -35 -5 -24 -74 -347 -131 -613 -25 -113 -52 -239
-60 -280 -9 -41 -25 -113 -35 -160 -11 -47 -31 -141 -45 -210 -14 -69 -35
-165 -46 -215 -12 -49 -23 -101 -26 -115 -2 -14 -22 -106 -43 -205 -21 -99
-41 -191 -44 -205 -2 -14 -21 -101 -41 -195 -20 -93 -39 -179 -41 -190 -5 -28
-44 -205 -51 -235 -3 -14 -8 -34 -10 -45 -2 -11 -15 -72 -28 -136 -31 -139
-28 -125 -60 -278 -14 -69 -28 -127 -30 -130 -1 -3 -6 -23 -9 -43 -3 -21 -10
-57 -15 -80 -9 -40 -15 -69 -27 -128 -3 -14 -7 -33 -10 -42 -3 -10 -7 -30 -10
-45 -3 -16 -16 -77 -29 -138 -31 -139 -75 -342 -81 -375 -2 -14 -24 -117 -49
-230 -24 -113 -46 -216 -48 -230 -3 -14 -10 -43 -15 -65 -6 -22 -13 -53 -16
-70 -3 -16 -7 -41 -10 -55 -3 -14 -8 -36 -11 -50 -10 -45 -14 -64 -30 -140
-10 -41 -19 -88 -22 -104 -3 -16 -9 -40 -14 -54 -5 -14 -7 -27 -5 -29 3 -3 0
-16 -5 -30 -5 -14 -12 -42 -15 -62 -3 -20 -10 -54 -16 -76 -5 -22 -12 -51 -15
-65 -3 -21 -96 -455 -110 -515 -2 -11 -6 -31 -9 -45 -13 -64 -66 -310 -75
-350 -6 -25 -13 -56 -15 -70 -2 -14 -7 -36 -10 -50 -3 -14 -7 -32 -9 -40 -2
-8 -13 -60 -25 -115 -12 -55 -24 -109 -26 -120 -2 -11 -6 -31 -10 -45 -3 -14
-7 -38 -10 -55 -3 -16 -9 -46 -14 -65 -8 -30 -143 -658 -154 -715 -3 -11 -14
-63 -25 -115 -11 -52 -22 -107 -25 -122 -3 -15 -7 -31 -9 -36 -3 -4 -8 -27
-12 -52 -4 -25 -8 -47 -10 -50 -2 -3 -6 -23 -9 -45 -4 -22 -11 -56 -16 -75 -5
-19 -19 -80 -30 -135 -12 -55 -23 -110 -26 -123 -2 -13 -29 -137 -59 -275 -29
-139 -56 -263 -58 -277 -3 -14 -8 -32 -11 -40 -3 -8 -7 -28 -10 -45 -3 -16
-15 -75 -26 -130 -26 -117 -38 -179 -46 -219 -3 -16 -7 -32 -9 -36 -2 -4 -7
-22 -10 -40 -3 -19 -20 -97 -36 -174 -17 -78 -32 -150 -35 -161 -4 -20 -112
-526 -119 -555 -6 -28 -57 -265 -61 -285 -2 -11 -6 -31 -9 -45 -3 -14 -8 -36
-11 -50 -3 -14 -7 -36 -10 -50 -3 -14 -10 -45 -15 -70 -6 -25 -13 -56 -15 -70
-3 -14 -11 -53 -19 -86 -8 -34 -17 -75 -19 -90 -7 -35 -42 -195 -61 -279 -8
-33 -17 -76 -20 -95 -3 -19 -15 -73 -25 -120 -21 -91 -129 -592 -135 -625 -1
-11 -19 -94 -39 -185 -20 -91 -46 -210 -57 -265 -12 -55 -22 -104 -24 -110 -5
-26 -28 -135 -29 -142 0 -5 634 -8 1410 -8 l1411 0 27 130 c15 72 29 139 31
150 3 11 7 31 10 45 3 14 7 34 9 45 3 11 10 43 16 70 6 28 14 61 16 75 3 14
16 77 30 140 14 63 28 126 30 139 3 12 11 51 19 85 8 33 16 72 19 86 10 54 57
272 85 400 16 74 32 146 35 160 2 14 9 45 15 70 5 25 12 59 15 75 3 17 17 80
30 140 14 61 27 121 30 135 2 14 22 108 45 210 34 157 119 551 135 631 3 13 7
33 10 44 8 35 45 209 50 235 3 14 23 111 46 215 48 218 49 221 55 257 3 16 12
56 20 91 8 34 28 125 44 202 42 199 145 678 191 890 22 99 41 191 44 205 5 24
43 205 86 400 11 52 22 104 24 115 3 11 10 43 16 70 6 28 14 60 16 73 3 13 16
75 29 138 14 63 27 123 29 132 1 9 6 28 9 42 8 30 64 294 70 330 3 14 19 90
37 170 17 80 33 152 35 161 2 9 12 59 24 110 20 93 24 115 36 174 3 17 11 50
16 75 6 25 13 54 15 65 7 37 12 60 34 155 12 52 24 106 26 120 3 14 18 88 35
165 17 77 34 160 39 185 17 83 19 95 34 160 27 119 197 909 272 1265 25 116
49 226 54 245 5 19 12 50 15 68 5 28 29 145 40 192 6 25 115 533 119 555 3 11
18 83 35 161 16 77 33 155 36 174 3 18 8 36 10 40 2 4 6 20 9 36 4 23 88 417
101 474 7 30 56 266 61 290 3 14 11 53 19 86 8 34 16 73 19 85 4 21 70 329 83
384 2 11 6 31 9 45 5 23 40 186 50 234 3 11 7 30 9 41 36 169 95 439 97 441 2
1 44 -6 93 -17 127 -27 556 -116 591 -122 16 -3 87 -17 159 -32 71 -14 141
-28 155 -30 14 -3 34 -7 45 -9 11 -2 40 -7 65 -11 25 -4 54 -9 65 -11 11 -3
35 -7 54 -10 18 -3 43 -8 55 -10 11 -2 48 -9 81 -14 33 -5 69 -12 80 -14 11
-2 42 -7 68 -10 27 -4 57 -9 66 -11 10 -2 42 -6 72 -10 30 -4 56 -8 59 -10 3
-2 33 -6 67 -10 34 -3 71 -8 82 -10 11 -2 44 -6 73 -9 29 -4 69 -8 88 -10 85
-11 199 -23 275 -31 63 -6 96 -8 265 -21 133 -11 730 -11 831 -1 106 10 241
27 259 32 8 2 34 7 57 10 23 3 95 19 160 35 65 15 119 27 121 26 1 -2 -13 -50
-32 -107 -32 -94 -68 -225 -80 -289 -3 -14 -12 -59 -20 -100 -8 -42 -18 -98
-21 -125 -4 -28 -8 -61 -11 -75 -23 -131 -23 -600 0 -730 3 -14 7 -45 10 -70
3 -25 8 -55 10 -66 2 -12 7 -37 10 -55 20 -116 57 -262 105 -408 85 -256 222
-548 361 -766 88 -138 262 -386 347 -495 158 -202 456 -567 483 -590 3 -3 35
-39 70 -80 36 -41 68 -77 71 -80 3 -3 29 -32 59 -65 64 -72 207 -230 235 -259
11 -12 69 -75 130 -141 60 -66 112 -122 115 -125 7 -5 418 -476 455 -521 11
-13 54 -64 96 -114 539 -642 932 -1231 1114 -1670 21 -49 43 -104 51 -120 18
-42 132 -384 138 -415 2 -14 14 -63 26 -110 26 -102 25 -97 50 -236 28 -160
33 -201 45 -344 23 -278 19 -600 -10 -810 -3 -19 -7 -55 -10 -79 -15 -130 -52
-301 -108 -496 -47 -167 -188 -466 -289 -614 -309 -456 -707 -745 -1218 -885
-70 -19 -198 -43 -275 -51 -33 -4 -71 -9 -85 -11 -49 -10 -396 -11 -485 -3
-596 58 -1054 321 -1353 777 -104 158 -207 389 -237 531 -2 9 -10 45 -19 81
-49 209 -65 586 -31 770 1 8 6 35 10 60 32 205 116 425 231 602 121 187 302
363 514 501 253 163 623 303 908 342 20 3 46 7 57 10 19 4 56 9 150 20 76 9
207 17 303 19 l97 2 -1 30 c-7 218 -104 486 -241 664 -140 183 -316 316 -573
434 -89 40 -304 105 -400 120 -19 3 -44 8 -56 10 -25 5 -92 14 -194 25 -97 11
-422 11 -525 0 -266 -28 -577 -101 -742 -175 -17 -8 -34 -14 -38 -14 -3 0 -59
-25 -123 -56 -286 -138 -528 -312 -769 -551 -184 -182 -291 -310 -409 -489
-179 -272 -327 -601 -400 -889 -1 -5 -12 -48 -24 -95 -12 -47 -24 -96 -26
-110 -3 -14 -11 -61 -19 -105 -20 -109 -26 -153 -41 -280 -18 -155 -24 -585
-10 -750 27 -321 64 -525 146 -790 33 -108 110 -305 143 -370 12 -22 22 -42
22 -45 3 -16 83 -161 122 -222 15 -24 33 -53 39 -65 7 -12 17 -28 23 -35 6 -7
47 -62 91 -121 45 -60 97 -128 118 -150 72 -83 273 -277 349 -337 43 -34 89
-71 102 -82 30 -25 301 -208 321 -217 8 -3 49 -26 90 -50 279 -166 814 -366
1139 -427 12 -3 53 -12 89 -20 37 -9 82 -18 102 -20 19 -2 42 -6 50 -9 8 -2
33 -7 55 -10 22 -3 63 -10 90 -15 28 -5 75 -12 105 -15 30 -3 66 -8 80 -10 14
-2 54 -7 90 -11 36 -3 72 -7 80 -9 148 -27 1144 -28 1405 -1 17 2 64 7 105 11
41 4 89 9 105 11 17 2 55 6 85 9 30 4 62 8 70 10 8 2 35 7 60 10 57 8 98 14
130 20 14 3 39 7 55 10 17 3 41 7 55 10 14 3 41 8 60 11 54 10 56 11 205 44
754 172 1462 495 2050 938 692 521 1157 1114 1480 1887 68 163 198 584 206
670 0 2 5 19 10 37 5 18 12 49 15 68 3 19 9 51 14 70 5 19 11 53 15 75 3 22 8
51 10 65 13 79 35 245 40 310 4 41 9 89 11 105 8 67 18 322 18 500 0 180 -11
471 -18 484 -2 3 -7 44 -10 91 -4 47 -9 96 -11 110 -7 58 -16 119 -25 170 -5
30 -12 71 -15 90 -10 66 -37 195 -52 255 -8 33 -16 67 -18 75 -9 46 -61 229
-90 315 -161 483 -349 847 -643 1245 -78 105 -107 143 -205 265 -62 76 -240
281 -335 385 -110 120 -517 528 -638 640 -143 132 -267 245 -359 326 -49 43
-99 88 -110 99 -11 11 -52 47 -90 80 -38 33 -83 74 -101 90 -17 17 -66 62
-110 100 -120 107 -629 617 -738 738 -52 60 -141 165 -197 235 -55 70 -108
136 -116 146 -48 60 -172 262 -232 377 -61 118 -145 309 -157 357 -2 9 -17 62
-34 117 -30 97 -66 257 -76 339 -3 23 -7 52 -10 66 -8 48 -17 216 -17 315 0
105 11 303 17 314 2 3 6 29 10 56 12 101 46 246 81 345 196 561 641 922 1269
1030 261 44 624 44 836 0 25 -6 61 -12 80 -15 119 -19 358 -123 479 -208 225
-158 401 -436 446 -706 3 -19 8 -37 10 -41 25 -40 24 -591 -1 -631 -2 -3 -6
-25 -9 -49 -12 -96 -102 -388 -143 -466 -6 -10 -33 -65 -61 -121 -45 -91 -152
-267 -194 -319 -134 -165 -238 -266 -364 -351 l-82 -56 19 -27 c11 -15 51 -57
91 -93 213 -199 466 -291 794 -291 85 0 254 12 265 19 4 3 25 7 47 9 22 3 52
10 67 15 14 6 26 9 26 6 0 -7 165 52 240 87 150 70 299 177 407 292 285 303
453 662 518 1111 4 22 8 51 10 65 24 142 24 589 0 730 -2 14 -11 67 -20 119
-54 320 -199 648 -397 894 -112 140 -272 289 -409 383 -30 21 -56 40 -59 43
-3 4 -50 33 -105 67 -298 180 -682 321 -1065 393 -36 7 -85 16 -110 21 -25 5
-67 12 -95 15 -27 3 -61 7 -75 10 -42 7 -92 13 -165 20 -38 4 -86 9 -105 12
-42 7 -944 16 -950 9z"/>
</g>
</svg>
